<svg xml:space="preserve" width="22.22" height="78.647" xmlns="http://www.w3.org/2000/svg" version="1.1" xmlns:xlink="http://www.w3.org/1999/xlink" transform="matrix(-1,0,0,1,0,0)">
  <defs>
    <linearGradient x1="0%" y1="0%" x2="0%" y2="100%" id="a">
      <stop stop-color="#F9F7F7" offset="0%"></stop>
      <stop stop-color="#F1F1F1" offset="100%"></stop>
    </linearGradient>
  </defs>
  <path d="M.5 22.5c0 18 7.7 22.5 8.9 25.9 1.1 3.4.9 13.9.9 17.8s3.9 34.4 4.8 37.9 0 25.9 0 25.9.6 5 3.2 6 4.2-4.2 4.2-4.2 5.6-19.4 7.3-27.6-.8-48.7-.8-55.8 9.1-16.2 9.1-31.4C38.1 7.9 25.2.5 22.1.5S.5 10.2.5 22.5" fill="url(#a)" transform="scale(.57566)"></path>
  <path d="M.288 12.952c0 10.361 4.433 12.952 5.124 14.91.633 1.956.518 8 .518 10.246S8.175 57.91 8.693 59.925s0 14.91 0 14.91.345 2.878 1.842 3.454 2.418-2.418 2.418-2.418 3.223-11.168 4.202-15.888-.46-28.035-.46-32.122 5.238-9.326 5.238-18.076c0-5.238-7.426-9.498-9.21-9.498S.287 5.871.287 12.952Z" stroke="#9f9f9f" stroke-linejoin="round" stroke-width=".576" fill="none"></path>
  <path d="M5.296 13.415c2.936 1.497 6.448 2.418 9.614.863.633-.287 1.151-.748 1.727-1.15" stroke="#9f9f9f" stroke-linejoin="round" stroke-width=".576" fill="none"></path>
</svg>