<svg xml:space="preserve" width="23.261" height="69.776" xmlns="http://www.w3.org/2000/svg" version="1.1" xmlns:xlink="http://www.w3.org/1999/xlink" transform="matrix(-1,0,0,1,0,0)">
  <defs>
    <linearGradient x1="0%" y1="0%" x2="0%" y2="100%" id="a">
      <stop stop-color="#F9F7F7" offset="0%"></stop>
      <stop stop-color="#F1F1F1" offset="100%"></stop>
    </linearGradient>
  </defs>
  <path d="M19.9 120.7c4 0 7-14.4 7.1-16.9s3-45.3 3.1-54 .6-9.6.6-9.6 9.1-15.2 8.8-19.1C39.3 11.6 26.6.1 21.7.5S.1 14 .1 21.8c0 7.9 9 15.4 10.6 25.3s2.2 36.4 2.2 36.4l-.4 20.8c.1-.1 1.6 16.4 7.4 16.4" fill="url(#a)" transform="translate(.231 .006)scale(.57566)"></path>
  <path d="M11.687 69.488c2.302 0 4.03-8.29 4.087-9.728s1.727-26.078 1.785-31.086.345-5.526.345-5.526 5.238-8.75 5.066-10.995C22.855 6.683 15.544.063 12.723.294S.289 8.065.289 12.556c0 4.547 5.18 8.865 6.102 14.564s1.266 20.954 1.266 20.954l-.23 11.973c.057-.057.92 9.441 4.26 9.441z" stroke="#9f9f9f" stroke-linejoin="round" stroke-width=".576" fill="none"></path>
  <path d="M6.621 13.134c.979.576 1.957 1.554 3.051 1.727 1.209.173 2.82.058 3.972-.23 1.324-.346 2.936-1.094 4.03-1.9" stroke="#9f9f9f" stroke-linejoin="round" stroke-width=".576" fill="none"></path>
</svg>