<svg xml:space="preserve" width="25.173" height="69.021" xmlns="http://www.w3.org/2000/svg" version="1.1" xmlns:xlink="http://www.w3.org/1999/xlink" transform="matrix(-1,0,0,1,0,0)">
  <defs>
    <linearGradient x1="0%" y1="0%" x2="0%" y2="100%" id="a">
      <stop stop-color="#F9F7F7" offset="0%"></stop>
      <stop stop-color="#F1F1F1" offset="100%"></stop>
    </linearGradient>
  </defs>
  <path d="M22.6 119.2c3.3 0 2.8-6.9 4.5-15.5C29.4 81.2 32 44 32.9 41.8c.5-6.2 10.7-15.7 10.1-23.2C42.3 11.1 26.3.3 21.9.3 17.6.3.5 12 .3 19.3c-.2 12 11.8 18 11.9 24 3.4 13.4 1.3 38.4 2.2 56.4.6 8.6 4.9 19.5 8.2 19.5" fill="url(#a)" transform="translate(.117 .114)scale(.57566)"></path>
  <path d="M13.127 68.733c1.9 0 1.612-3.973 2.59-8.923 1.324-12.953 2.821-34.367 3.34-35.634.287-3.569 6.159-9.037 5.813-13.355C24.467 6.504 15.257.287 12.724.287 10.249.287.404 7.022.29 11.224.175 18.132 7.082 21.586 7.14 25.04c1.957 7.714.748 22.105 1.266 32.467.346 4.95 2.821 11.226 4.72 11.226z" stroke="#9f9f9f" stroke-linejoin="round" stroke-width=".576" fill="none"></path>
  <path d="M7.025 15.775c1.439-.46 1.842 1.151 2.993 1.612.921.345 2.418.115 3.397.115 2.475-.115 3.281-1.44 5.584-1.152" stroke="#9f9f9f" stroke-linejoin="round" stroke-width=".576" fill="none"></path>
</svg>