<svg xml:space="preserve" width="35.173" height="65.302" xmlns="http://www.w3.org/2000/svg" version="1.1" xmlns:xlink="http://www.w3.org/1999/xlink" transform="matrix(-1,0,0,1,0,0)">
  <defs>
    <linearGradient x1="38.01" y1=".366" x2="47.909" y2="75.772" id="a" gradientTransform="scale(.7311 1.36781)" gradientUnits="userSpaceOnUse">
      <stop stop-color="#F9F7F7" offset="0%"></stop>
      <stop stop-color="#F1F1F1" offset="100%"></stop>
    </linearGradient>
  </defs>
  <g class="figura_odontograma">
    <path d="M27.1 16.3V9.1S37.9.5 44.1.5c3.6 0 16 13.6 16 17.6 0 11.8-10.9 28.1-11.2 38.4 0 0-.3 28.8-1.9 33.3s-15.9 26.1-21.2 22.8S32 87.8 32 83.3c.1-4.6 3.6-18-.5-18-3.9-.1-4.4 7.2-6.7 13.7-2.5 7.3-5.1 11.1-6.4 15s-1.9 15.6-7.3 15.6c0 0-7.3.9-6.9-14.8.3-15.8 4.3-26.7 4.3-36.6S6.2 39.8 6.2 39.8 0 30.5 0 19.8 11.5 4.7 14.6 4.4C24.3 3.5 27 9.1 27 9.1Z" fill="url(#a)" style="fill:url(#a)" transform="translate(.288)scale(.57566)"></path>
    <path d="M15.888 9.382V5.238S22.105.287 25.675.287c2.072 0 9.21 7.829 9.21 10.132 0 6.792-6.275 16.176-6.447 22.105 0 0-.173 16.579-1.094 19.17S18.191 66.717 15.14 64.818s3.57-14.277 3.57-16.867c.057-2.648 2.071-10.362-.289-10.362-2.245-.058-2.533 4.145-3.857 7.886-1.439 4.203-2.936 6.39-3.684 8.635s-1.094 8.98-4.202 8.98c0 0-4.203.519-3.972-8.52.172-9.095 2.475-15.37 2.475-21.068S3.857 22.91 3.857 22.91.288 17.557.288 11.397s6.62-8.692 8.405-8.865c5.584-.518 7.138 2.706 7.138 2.706Z" fill="none" stroke="#9f9f9f" stroke-linejoin="round" stroke-width=".576"></path>
    <path d="M3.281 18.193c1.094-.518 3.109.863 4.145 1.209 1.036.403 2.303.403 3.454.288 1.324-.115 2.82-.173 4.145-.403.978-.173 1.842-.749 2.878-.864 1.21-.115 2.994-.23 4.145 0 .979.23 1.842.864 2.878.979 2.073.288 3.857-.749 5.814-.633" stroke="#9f9f9f" stroke-linejoin="round" stroke-width=".576" fill="none"></path>
  </g>
  <g transform="translate(-302.974 -246.382)"></g>
</svg>