<svg xml:space="preserve" width="19.327" height="63.38" xmlns="http://www.w3.org/2000/svg">
  <defs>
    <linearGradient x1="0%" y1="0%" x2="0%" y2="100%" id="a">
      <stop stop-color="#F9F7F7" offset="0%"/>
      <stop stop-color="#F1F1F1" offset="100%"/>
    </linearGradient>
  </defs>
  <path d="M18.1.5C11 .9 3.9.1 1.2 5.9s.5 18.1.9 19.5 4 15.5 4.4 18.1 2 13.1 2.7 19.9 1.6 32.7 1.5 35.6.6 10.4 2.9 10.4c5.5.1 6-11.8 7.9-24.2l1.6-36.1 1.4-4.9S31 21.7 32 14.5c0 0 1.9-10.8-.6-12.8S18.7.4 18.1.5" 
    fill="url(#a)" transform="translate(.221 .114)scale(.57566)"/>
  <path d="M10.64.402C6.553.632 2.466.172.912 3.51s.288 10.42.518 11.226 2.303 8.922 2.533 10.42 1.151 7.54 1.554 11.455.921 18.824.864 20.493.345 5.987 1.669 5.987c3.166.058 3.454-6.793 4.548-13.93l.92-20.782.807-2.821s3.741-12.952 4.317-17.097c0 0 1.094-6.217-.345-7.369S10.986.344 10.64.402z" 
    stroke="#9f9f9f" stroke-linejoin="round" stroke-width=".576" fill="none"/>
  <path d="M3.905 16.005c1.036.115 1.44.46 2.303.921.748.403 1.67.403 2.475.46 1.497.116 2.994.23 4.26-.575a16 16 0 0 1 1.727-.921" 
    stroke="#9f9f9f" stroke-linejoin="round" stroke-width=".576" fill="none"/>
</svg>