<svg xml:space="preserve" width="22.211" height="68.832" xmlns="http://www.w3.org/2000/svg">
  <defs>
    <linearGradient x1="0%" y1="0%" x2="0%" y2="100%" id="a">
      <stop stop-color="#F9F7F7" offset="0%"/>
      <stop stop-color="#F1F1F1" offset="100%"/>
    </linearGradient>
  </defs>
  <path d="M.4 18.8c-1.3-7.2 4-15 7.1-16.4S25-1 32.2.8c7.5 1.8 5.8 12 4.2 18.2-1.9 7.4-3.8 14.6-6.2 21.9-1.2 3.9-.5 4.4-.5 8.4.1 4.3.7 7.1.8 11.4.1 8.6 1.1 17.9.6 26.5-.3 4.9-1 11.8-1.6 16.6-.3 2.2-6.7 15.8-10 14.8-3.3-.9-.9-17.9-1.2-24.9-.4-7.6-3.4-18.4-4.3-26s-1.4-14.5-3.4-22.8C8.3 35.2 2.3 28.8.4 18.8" 
    fill="url(#a)" transform="translate(.176 .24)scale(.57566)"/>
  <path d="M.406 11.062c-.749-4.145 2.302-8.635 4.087-9.44S14.567-.337 18.712.7c4.317 1.036 3.339 6.908 2.418 10.477-1.094 4.26-2.188 8.405-3.57 12.607-.69 2.245-.287 2.533-.287 4.836.057 2.475.403 4.087.46 6.562.058 4.95.633 10.304.346 15.255-.173 2.82-.576 6.793-.922 9.556-.172 1.266-3.856 9.095-5.756 8.52-1.9-.518-.518-10.305-.69-14.334-.231-4.375-1.958-10.592-2.476-14.967s-.806-8.347-1.958-13.125C4.953 20.503 1.5 16.819.406 11.062Z" 
    stroke="#9f9f9f" stroke-linejoin="round" stroke-width=".576" fill="none"/>
  <path d="M6.22 15.555c.69.863 1.382 1.67 2.475 1.842 1.152.23 2.59.345 3.8.23 1.669-.172 3.108-1.496 4.547-2.302" 
    stroke="#9f9f9f" stroke-linejoin="round" stroke-width=".576" fill="none"/>
</svg>