<svg xml:space="preserve" width="38.686" height="67.354" xmlns="http://www.w3.org/2000/svg">
  <defs>
    <linearGradient x1="0%" y1="0%" x2="0%" y2="100%" id="a">
      <stop stop-color="#F9F7F7" offset="0%"/>
      <stop stop-color="#F1F1F1" offset="100%"/>
    </linearGradient>
  </defs>
  <path d="M38.2 60.1c5.2.2 6 13.7 5.3 22.8-.9 12-4.2 24.2-4 27.8s3.2 5.8 4.8 5.7c1.7-.2 18.2-11 18-30.5s-6.2-44.4-5-46.5c0 0 10-15.6 9.8-27.3 0 0-8-11.7-18.7-11.7S35.9 5.1 35.9 5.1v10.7l-.7-10.5S27.4.3 22.7.5s-8.8 3.2-9 4.5 0 4.7 0 4.7 1.2-6.8-5.5-7C8.2 2.7.9 1.5.9 17c0 8.8 8.2 19.3 10.3 23.5.7 8.4.8 31.5.7 46.2 0 0-.3 10.5.8 13.7 1.2 3.2 6.3 11.7 6.3 11.7s1.8 3.4 4.2 2.8c0 0-.3-21.5.5-23.8s6-10.2 6.3-12.8c.5-2.8 3-18.3 8.2-18.2"
    fill="url(#a)" transform="translate(-.23 .058)scale(.57566)"/>
  <path d="M21.76 34.655c2.994.115 3.455 7.886 3.052 13.125-.518 6.908-2.418 13.93-2.303 16.003s1.842 3.339 2.763 3.281c.979-.115 10.477-6.332 10.362-17.557s-3.569-25.56-2.878-26.768c0 0 5.756-8.98 5.641-15.716 0 0-4.605-6.735-10.765-6.735s-7.195 2.705-7.195 2.705v6.16l-.403-6.044S15.544.23 12.838.345s-5.066 1.842-5.18 2.59 0 2.706 0 2.706.69-3.914-3.167-4.03c0 0-4.202-.69-4.202 8.233 0 5.066 4.72 11.11 5.929 13.528.403 4.835.46 18.133.403 26.595 0 0-.173 6.045.46 7.887.691 1.842 3.627 6.735 3.627 6.735s1.036 1.957 2.418 1.612c0 0-.173-12.377.288-13.7s3.454-5.873 3.626-7.37c.288-1.611 1.727-10.534 4.72-10.476z" 
    stroke="#9f9f9f" stroke-linejoin="round" stroke-width=".576" fill="none"/>
  <path d="M5.412 19.115c1.324-.115 2.763-.346 3.972.288 1.151.575 1.785 1.093 3.166 1.266 2.706.288 5.987.288 8.462-.979 4.03-2.13 7.254 1.152 11.398 1.267" 
    stroke="#9f9f9f" stroke-linejoin="round" stroke-width=".576" fill="none"/>
</svg>