<svg xml:space="preserve" width="34.723" height="59.123" xmlns:xlink="http://www.w3.org/1999/xlink" xmlns="http://www.w3.org/2000/svg">
  <defs>
    <linearGradient x1="0%" y1="0%" x2="0%" y2="100%" id="a">
      <stop stop-color="#F9F7F7" offset="0%"/>
      <stop stop-color="#F1F1F1" offset="100%"/>
    </linearGradient>
  </defs>
  <path d="M12.9 102.1c4.8 0 2.7-11.5 2.7-14.2s.7-11.5 3.6-16.7 4.2-8.6 6.1-7.8c1.9.9 1.5 3.7-.5 9.5 0 0-4.4 13-4.2 19.4.2 6.3 2.2 7 3.3 7C28 99.2 42 75.6 45.7 64.6s3.5-23.3 3.4-26.4 9.7-12.8 10.2-22.4C59.9 6.2 45.9.2 42.7.4c-3.3.2-14.3 6.1-14.3 6.1V15l-.2-8.3S21.8 2.6 13 3.1 0 10.8 0 17.6c0 19.2 8.9 19.5 8.9 28.1s-6.7 25.9-6.7 34 5.5 22.4 10.7 22.4"
    
    fill="url(#a)" transform="scale(.57566)
      
      "/>
  <path d="M7.714 58.836c2.763 0 1.554-6.62 1.554-8.175s.403-6.62 2.073-9.613 2.418-4.95 3.511-4.49c1.094.518.864 2.13-.287 5.468 0 0-2.533 7.484-2.418 11.168.115 3.627 1.266 4.03 1.9 4.03 2.36-.058 10.419-13.643 12.549-19.976s2.015-13.412 1.957-15.197 5.584-7.368 5.872-12.895C34.77 3.63 26.71.176 24.869.291c-1.9.115-8.232 3.512-8.232 3.512v4.893l-.115-4.778s-3.684-2.36-8.75-2.073S.288 6.278.288 10.192c0 11.053 5.124 11.226 5.124 16.176s-3.857 14.91-3.857 19.573 3.166 12.895 6.16 12.895z" 
    
    stroke="#9f9f9f" stroke-linejoin="round" stroke-width=".576" fill="none"
    
    />
  <path d="M3.109 20.324c1.151 0 2.015-.057 3.05.46.922.461 1.785.864 2.764 1.152a8 8 0 0 0 3.512.115c.978-.173 1.669-.863 2.59-1.094 3.109-.863 6.275.864 9.383.979 1.727.057 2.763-.576 4.318-.979" stroke="#9f9f9f" stroke-linejoin="round" stroke-width=".576" fill="none
    "/>
</svg>