<svg xml:space="preserve" width="22.257" height="78.777" xmlns="http://www.w3.org/2000/svg" version="1.1" xmlns:xlink="http://www.w3.org/1999/xlink">
  <defs>
    <linearGradient x1="0%" y1="0%" x2="0%" y2="100%" id="a">
      <stop stop-color="#F9F7F7" offset="0%"></stop>
      <stop stop-color="#F1F1F1" offset="100%"></stop>
    </linearGradient>
  </defs>
  <path d="M.5 22.5c0 18 7.7 22.5 8.9 25.9 1.1 3.4.9 13.9.9 17.8s3.9 34.4 4.8 37.9 0 25.9 0 25.9.6 5 3.2 6 4.2-4.2 4.2-4.2 5.6-19.4 7.3-27.6-.8-48.7-.8-55.8 9.1-16.2 9.1-31.4C38.1 7.9 25.2.5 22.1.5S.5 10.2.5 22.5" fill="url(#a)" transform="translate(-.001 .002)scale(.5766)"></path>
  <path d="M.287 12.975c0 10.379 4.44 12.974 5.132 14.934.634 1.96.519 8.015.519 10.264s2.249 19.835 2.768 21.853 0 14.934 0 14.934.346 2.883 1.845 3.46 2.421-2.423 2.421-2.423 3.23-11.186 4.21-15.914-.462-28.08-.462-32.174 5.247-9.34 5.247-18.105c0-5.247-7.438-9.514-9.225-9.514S.287 5.883.287 12.975Z" stroke="#9f9f9f" stroke-linejoin="round" stroke-width=".577" fill="none"></path>
  <path d="M5.304 13.44c2.94 1.498 6.458 2.421 9.629.864.634-.288 1.153-.75 1.73-1.153" stroke="#9f9f9f" stroke-linejoin="round" stroke-width=".577" fill="none"></path>
</svg>