<svg xml:space="preserve" width="22.247" height="68.945" xmlns="http://www.w3.org/2000/svg">
  <defs>
    <linearGradient x1="0%" y1="0%" x2="0%" y2="100%" id="a">
      <stop stop-color="#F9F7F7" offset="0%"/>
      <stop stop-color="#F1F1F1" offset="100%"/>
    </linearGradient>
  </defs>
  <path d="M.4 18.8c-1.3-7.2 4-15 7.1-16.4S25-1 32.2.8c7.5 1.8 5.8 12 4.2 18.2-1.9 7.4-3.8 14.6-6.2 21.9-1.2 3.9-.5 4.4-.5 8.4.1 4.3.7 7.1.8 11.4.1 8.6 1.1 17.9.6 26.5-.3 4.9-1 11.8-1.6 16.6-.3 2.2-6.7 15.8-10 14.8-3.3-.9-.9-17.9-1.2-24.9-.4-7.6-3.4-18.4-4.3-26s-1.4-14.5-3.4-22.8C8.3 35.2 2.3 28.8.4 18.8" 
    fill="url(#a)" transform="translate(.173 .242)scale(.5766)"/>
  <path d="M.403 11.082c-.75-4.151 2.307-8.649 4.094-9.456S14.587-.334 18.74.703c4.325 1.038 3.344 6.92 2.422 10.494-1.096 4.267-2.191 8.419-3.575 12.628-.692 2.249-.288 2.537-.288 4.843.057 2.48.403 4.094.46 6.574.059 4.958.635 10.32.347 15.28-.173 2.825-.577 6.803-.923 9.571-.173 1.269-3.863 9.11-5.766 8.534-1.902-.52-.519-10.321-.692-14.358-.23-4.382-1.96-10.609-2.479-14.991s-.807-8.36-1.96-13.147C4.958 20.538 1.499 16.848.403 11.082Z" 
    stroke="#9f9f9f" stroke-linejoin="round" stroke-width=".577" fill="none"/>
  <path d="M6.227 15.582c.692.865 1.384 1.673 2.48 1.846 1.152.23 2.594.346 3.805.23 1.672-.173 3.113-1.499 4.555-2.306" 
    stroke="#9f9f9f" stroke-linejoin="round" stroke-width=".577" fill="none"/>
</svg>