<svg xml:space="preserve" width="38.75" height="67.465" xmlns="http://www.w3.org/2000/svg">
  <defs>
    <linearGradient x1="0%" y1="0%" x2="0%" y2="100%" id="a">
      <stop stop-color="#F9F7F7" offset="0%"/>
      <stop stop-color="#F1F1F1" offset="100%"/>
    </linearGradient>
  </defs>
  <path d="M38.2 60.1c5.2.2 6 13.7 5.3 22.8-.9 12-4.2 24.2-4 27.8s3.2 5.8 4.8 5.7c1.7-.2 18.2-11 18-30.5s-6.2-44.4-5-46.5c0 0 10-15.6 9.8-27.3 0 0-8-11.7-18.7-11.7S35.9 5.1 35.9 5.1v10.7l-.7-10.5S27.4.3 22.7.5s-8.8 3.2-9 4.5 0 4.7 0 4.7 1.2-6.8-5.5-7C8.2 2.7.9 1.5.9 17c0 8.8 8.2 19.3 10.3 23.5.7 8.4.8 31.5.7 46.2 0 0-.3 10.5.8 13.7 1.2 3.2 6.3 11.7 6.3 11.7s1.8 3.4 4.2 2.8c0 0-.3-21.5.5-23.8s6-10.2 6.3-12.8c.5-2.8 3-18.3 8.2-18.2" 
    fill="url(#a)" transform="translate(-.231 .058)scale(.5766)"/>
  <path d="M21.795 34.712c2.998.115 3.46 7.9 3.056 13.147-.519 6.919-2.422 13.953-2.306 16.029s1.845 3.344 2.767 3.287c.98-.116 10.494-6.343 10.38-17.587s-3.576-25.6-2.884-26.812c0 0 5.766-8.995 5.65-15.74 0 0-4.612-6.747-10.782-6.747s-7.207 2.71-7.207 2.71v6.17l-.404-6.055S15.568.231 12.858.347 7.784 2.192 7.668 2.94s0 2.71 0 2.71.692-3.92-3.17-4.036c0 0-4.21-.692-4.21 8.246 0 5.074 4.728 11.128 5.939 13.55.404 4.843.461 18.163.404 26.639 0 0-.173 6.054.46 7.899.693 1.845 3.633 6.746 3.633 6.746s1.038 1.96 2.422 1.615c0 0-.173-12.397.288-13.723s3.46-5.882 3.633-7.38c.288-1.615 1.73-10.553 4.728-10.495z" 
    stroke="#9f9f9f" stroke-linejoin="round" stroke-width=".577" fill="none"/>
  <path d="M5.42 19.147c1.326-.116 2.767-.346 3.978.288 1.153.577 1.788 1.096 3.172 1.269 2.71.288 5.996.288 8.476-.98 4.036-2.134 7.265 1.153 11.416 1.268" 
    stroke="#9f9f9f" stroke-linejoin="round" stroke-width=".577" fill="none"/>
</svg>