<svg xml:space="preserve" width="35.231" height="65.409" xmlns="http://www.w3.org/2000/svg">
  <defs>
    <linearGradient x1="0%" y1="0%" x2="0%" y2="100%" id="a">
      <stop stop-color="#F9F7F7" offset="0%"/>
      <stop stop-color="#F1F1F1" offset="100%"/>
    </linearGradient>
  </defs>
  <path d="M27.1 16.3V9.1S37.9.5 44.1.5c3.6 0 16 13.6 16 17.6 0 11.8-10.9 28.1-11.2 38.4 0 0-.3 28.8-1.9 33.3s-15.9 26.1-21.2 22.8S32 87.8 32 83.3c.1-4.6 3.6-18-.5-18-3.9-.1-4.4 7.2-6.7 13.7-2.5 7.3-5.1 11.1-6.4 15s-1.9 15.6-7.3 15.6c0 0-7.3.9-6.9-14.8.3-15.8 4.3-26.7 4.3-36.6S6.2 39.8 6.2 39.8 0 30.5 0 19.8 11.5 4.7 14.6 4.4C24.3 3.5 27 9.1 27 9.1Z" 
    fill="url(#a)" transform="translate(.288 .002)scale(.5766)"/>
  <path d="M15.914 9.4V5.25S22.142.29 25.716.29c2.076 0 9.226 7.842 9.226 10.148 0 6.804-6.285 16.203-6.458 22.142 0 0-.173 16.606-1.095 19.2S18.22 66.83 15.165 64.928s3.575-14.3 3.575-16.894c.057-2.653 2.075-10.379-.289-10.379-2.248-.058-2.537 4.152-3.863 7.9-1.441 4.209-2.94 6.4-3.69 8.648s-1.096 8.995-4.21 8.995c0 0-4.209.52-3.978-8.533.173-9.11 2.48-15.396 2.48-21.104S3.862 22.95 3.862 22.95.288 17.589.288 11.42s6.631-8.707 8.419-8.88c5.593-.519 7.15 2.71 7.15 2.71Z" 
    stroke="#9f9f9f" stroke-linejoin="round" stroke-width=".577" fill="none"/>
  <path d="M3.287 18.225c1.095-.518 3.113.865 4.151 1.211 1.038.404 2.307.404 3.46.289 1.326-.116 2.825-.173 4.151-.404.98-.173 1.845-.75 2.883-.865 1.211-.115 2.999-.23 4.152 0 .98.23 1.845.865 2.883.98 2.076.289 3.863-.75 5.824-.634" 
    stroke="#9f9f9f" stroke-linejoin="round" stroke-width=".577" fill="none"/>
</svg>