<svg xml:space="preserve" width="24.506" height="83.165" xmlns="http://www.w3.org/2000/svg">
  <defs>
    <linearGradient x1="0%" y1="0%" x2="0%" y2="100%" id="a">
      <stop stop-color="#F9F7F7" offset="0%"/>
      <stop stop-color="#F1F1F1" offset="100%"/>
    </linearGradient>
  </defs>
  <path d="M21.7 143.2c2.9.6 19.8-9 19.8-17.9s-12.6-22-15.6-63.6S23 6.6 23 6.6 22 0 18.5 0s-7.6 21-7.6 21-5 21.9-4.9 56.2-1.2 32-2.4 34.6S0 120 0 123.6c0 7.8 7 16.5 21.7 19.6" 
    fill="url(#a)" transform="translate(.287 .288)scale(.5766)"/>
  <path d="M12.8 82.857c1.671.346 11.416-5.189 11.416-10.32s-7.265-12.686-8.995-36.673-1.672-31.77-1.672-31.77S12.972.288 10.954.288 6.572 12.397 6.572 12.397 3.689 25.024 3.747 44.802s-.692 18.451-1.384 19.95S.287 69.48.287 71.556c0 4.497 4.036 9.514 12.512 11.301z" 
    stroke="#9f9f9f" stroke-linejoin="round" stroke-width=".577" fill="none"/>
  <path d="M3.516 58.237c3.748-1.327 7.208-2.307 11.128-1.327 1.442.346 3.575.577 4.729 1.615" 
    stroke="#9f9f9f" stroke-linejoin="round" stroke-width=".577" fill="none"/>
</svg>