<svg xml:space="preserve" width="32.117" height="65.485" xmlns="http://www.w3.org/2000/svg">
  <defs>
    <linearGradient x1="0%" y1="0%" x2="0%" y2="100%" id="a">
      <stop stop-color="#F7F7F7" offset="0%"/>
      <stop stop-color="#EBEAEA" offset="100%"/>
    </linearGradient>
    <linearGradient x1="0%" y1="0%" x2="0%" y2="100%" id="b">
      <stop stop-color="#F9F7F7" offset="0%"/>
      <stop stop-color="#F1F1F1" offset="100%"/>
    </linearGradient>
  </defs>
  <path d="m26.1 5.072-.106.05-.11.055c-.24.082-3.15 1.264.016 9.995l2.6 9.8s1.8 26.6-2.2 26.5c-4.356-.198-3.321-26.074-4.756-31.637l-.044-.163c-1.207-4.185-2.285-11.352-4.903-13.884l.003-.416-.2-.7s-.7-4.2 2.3-4.6c3.4-.4 4.3.8 7.4 5" 
    fill="url(#a)" transform="translate(.288 .286)scale(.5766)"/>
  <path d="m15.338 3.21-.061.03-.064.03c-.138.048-1.816.73.01 5.764l1.499 5.65s1.037 15.338-1.269 15.28c-2.512-.114-1.915-15.034-2.742-18.241l-.026-.094c-.696-2.413-1.317-6.546-2.827-8.006l.002-.24-.115-.403S9.34.558 11.07.327c1.96-.23 2.48.462 4.267 2.883z" 
    stroke="#9f9f9f" stroke-linejoin="round" stroke-width=".577" fill="none"/>
  <path d="M6.4 74.372c-.8 1.3-3.8 8.6-4 10.5s-2.4 8-2.4 11.8 7.8 13.7 13.6 14 10.1-3.6 10.1-3.6v-.7l-.1-7.4.1 7.4s11 6.3 13 6.2c2 0 17.9-9.7 18-15.9v-5.2l-7.2-18.6-.6-3.8s-.2-25.9-1.7-32.9-8.4-25.4-11.7-28.4c-3-2.8-6.6-3.2-7.6-2.6 0 0-3.3.9 0 10l2.6 9.8s1.8 26.6-2.2 26.5c-4.4-.2-3.3-26.6-4.8-31.8s-2.8-15-7.1-14.8c-4.3.3-4.5 12.1-4.6 23.2 0 11 0 40.9-3.4 46.3" 
    fill="url(#b)" transform="translate(.288 .286)scale(.5766)"/>
  <path d="M3.979 43.169c-.462.75-2.191 4.959-2.307 6.054S.288 53.836.288 56.027s4.498 7.9 7.842 8.072 5.824-2.075 5.824-2.075v-.404l-.058-4.267.058 4.267s6.342 3.633 7.496 3.575c1.153 0 10.32-5.593 10.378-9.168v-2.998l-4.151-10.725-.346-2.191s-.115-14.934-.98-18.97-4.844-14.646-6.746-16.376c-1.73-1.614-3.806-1.845-4.383-1.499 0 0-1.902.519 0 5.766l1.5 5.65s1.037 15.338-1.269 15.28c-2.537-.115-1.903-15.337-2.768-18.335s-1.614-8.65-4.094-8.534c-2.479.173-2.594 6.977-2.652 13.377 0 6.343 0 23.583-1.96 26.697z" 
    stroke="#9f9f9f" stroke-linejoin="round" stroke-width=".577" fill="none"/>
  <path d="M4.555 41.612c3.633-.634 6.977-.634 8.822-.519 1.788.115 3.402-.115 5.19-.058 1.557.058 2.998-.115 4.612 0 1.154.058 2.365 0 4.44.462 0 .115.058.115.116.115" 
    stroke="#9f9f9f" stroke-linejoin="round" stroke-width=".577" fill="none"/>
</svg>