<svg xml:space="preserve" width="30.64" height="75.958" xmlns="http://www.w3.org/2000/svg" version="1.1" xmlns:xlink="http://www.w3.org/1999/xlink" transform="matrix(-1,0,0,1,0,0)">
  <defs>
    <linearGradient x1="0%" y1="0%" x2="0%" y2="100%" id="a">
      <stop stop-color="#F9F7F7" offset="0%"></stop>
      <stop stop-color="#F1F1F1" offset="100%"></stop>
    </linearGradient>
  </defs>
  <path d="M28.923 130.537c5.6.3 22.8 1.2 23.2-6.4s-7.5-33.9-7.9-44.9.2-33.8-2.5-44.8-11-30.5-11-30.5-2.5-4.8-6.2-3.8c-3.8 1-3.4 18.8-3.9 35.2s-7.9 11.6-8.2 44.1c-2 5.9-12.5 19.6-12.4 34.1 0 .1-1.9 18.6 28.9 17" fill="url(#a)" transform="translate(.286 .288)scale(.5766)"></path>
  <path d="M16.963 75.555c3.23.173 13.147.692 13.377-3.69s-4.324-19.546-4.555-25.89.116-19.488-1.441-25.83S18 2.557 18 2.557 16.56-.21 14.426.367c-2.19.576-1.96 10.84-2.248 20.296s-4.556 6.689-4.729 25.428C6.296 49.493.242 57.393.3 65.753c0 .058-1.095 10.725 16.664 9.802z" stroke="#9f9f9f" stroke-linejoin="round" stroke-width=".577" fill="none"></path>
  <path d="M7.046 46.898c1.153-.403 2.249-.98 3.344-1.441 1.903-.75 3.979-.98 5.997-.865 1.499.058 2.94.404 4.44.75 1.095.23 2.364.346 3.344.807.576.23 1.038.692 1.557 1.095" stroke="#9f9f9f" stroke-linejoin="round" stroke-width=".577" fill="none"></path>
</svg>