<svg xml:space="preserve" width="21.461" height="72.101" xmlns="http://www.w3.org/2000/svg" version="1.1" xmlns:xlink="http://www.w3.org/1999/xlink" transform="matrix(-1,0,0,1,0,0)">
  <defs>
    <linearGradient x1="0%" y1="0%" x2="0%" y2="100%" id="a">
      <stop stop-color="#F9F7F7" offset="0%"></stop>
      <stop stop-color="#F1F1F1" offset="100%"></stop>
    </linearGradient>
  </defs>
  <path d="M25.01 124.06c9.6-.9 10.9-4 11.2-6s-4.8-48.4-4.6-63.4-3-38.4-3.1-38.9-4.9-19.5-12.6-15.1c-3.5 3 2.6 4.6.9 18s-5.9 19.8-6.5 33.8-3.6 34.7-7 43.9-3.5 8.5-3.2 11.1-1.7 13.3 24.9 16.6" fill="url(#a)" transform="translate(.282 .278)scale(.5766)"></path>
  <path d="M14.703 71.81c5.535-.518 6.285-2.305 6.458-3.459s-2.768-27.907-2.652-36.556-1.73-22.142-1.788-22.43S13.896-1.879 9.456.658c-2.018 1.73 1.5 2.653.519 10.38S6.573 22.453 6.227 30.525 4.151 50.534 2.191 55.84s-2.018 4.9-1.845 6.4-.98 7.67 14.357 9.572z" stroke="#9f9f9f" stroke-linejoin="round" stroke-width=".577" fill="none"></path>
  <path d="M4.612 46.613c1.615-.634 3.114-1.787 4.844-2.133 1.326-.23 2.825-.058 4.21-.058 1.96-.057 4.035.577 5.592 1.73" stroke="#9f9f9f" stroke-linejoin="round" stroke-width=".577" fill="none"></path>
</svg>