<svg xml:space="preserve" width="35.522" height="71.557" xmlns="http://www.w3.org/2000/svg" version="1.1" xmlns:xlink="http://www.w3.org/1999/xlink">
  <defs>
    <linearGradient x1="0%" y1="0%" x2="0%" y2="100%" id="a">
      <stop stop-color="#F7F7F7" offset="0%"></stop>
      <stop stop-color="#EBEAEA" offset="100%"></stop>
    </linearGradient>
    <linearGradient x1="0%" y1="0%" x2="0%" y2="100%" id="b">
      <stop stop-color="#F9F7F7" offset="0%"></stop>
      <stop stop-color="#F1F1F1" offset="100%"></stop>
    </linearGradient>
  </defs>
  <path d="M28.6 0C37.2.1 37 5.9 37 5.9l.04.378q-.12.056-.24.122c-2 1.1-.6 23.2-.9 28.2l-.03.452c-.408 5.382-2.759 19.377-5.77 20.348-2.963.956-5.835-9.327-6.956-13.817L23 41c-1-4.1-1.6-19.9-2.4-21.1l-.062-.525a36 36 0 0 0-.615-3.4L19.9 15.5l.023-.7C20.066 11.778 21.103 0 28.6 0" fill="url(#a)" transform="translate(.288 .288)scale(.5766)"></path>
  <path d="M16.779.288c4.958.058 4.843 3.402 4.843 3.402l.023.218q-.069.032-.138.07c-1.153.635-.346 13.377-.520 16.26l-.016.261c-.236 3.103-1.591 11.173-3.327 11.733-1.709.551-3.365-5.378-4.011-7.967l-.083-.336c-.577-2.364-.923-11.475-1.384-12.167l-.036-.302a21 21 0 0 0-.355-1.96l-.013-.275.013-.403c.083-1.743.680-8.534 5.004-8.534Z" stroke="#9f9f9f" stroke-linejoin="round" stroke-width=".577" fill="none"></path>
  <path d="M26.6 117s-3 4.8-11 4.8S0 111.4 0 102.1s5.8-17.7 5.8-39.2S4.8 6.5 12 6s8.6 13.9 8.6 13.9c.8 1.2 1.4 17 2.4 21.1s4 15.4 7.1 14.4 5.5-15.8 5.8-20.8-1.1-27.1.9-28.2 3.8.1 6.8 2.6c3.1 2.5 8.4 15.2 10.3 23.1s1.9 35.1 3.6 47.8 3.2 22.1 3.1 27-9.8 16.2-14.9 16.2-19.2-6.6-19.2-6.6v-11.4V117" fill="url(#b)" transform="translate(.288 .288)scale(.5766)"></path>
  <path d="M15.625 67.75s-1.73 2.768-6.342 2.768S.288 64.521.288 59.159s3.344-10.206 3.344-22.603-.576-32.52 3.575-32.808 4.959 8.014 4.959 8.014c.461.692.807 9.803 1.384 12.167s2.306 8.88 4.094 8.303 3.17-9.11 3.344-11.994-.634-15.625.519-16.26 2.19.058 3.92 1.5c1.788 1.441 4.844 8.764 5.94 13.319s1.095 20.239 2.075 27.561 1.846 12.743 1.788 15.569-5.65 9.34-8.591 9.34-11.071-3.805-11.071-3.805v-6.573 6.861" stroke="#9f9f9f" stroke-linejoin="round" stroke-width=".577" fill="none"></path>
  <path d="M2.825 46.647c2.364-.635 4.613-1.442 7.034-1.845 2.653-.404 5.363-.75 8.015-.98 2.826-.231 5.94-.635 8.765-.289 1.556.173 3.055.865 4.612 1.269.808.173 1.384.692 2.134.865" stroke="#9f9f9f" stroke-linejoin="round" stroke-width=".577" fill="none"></path>
</svg>