<svg xml:space="preserve" width="24.465" height="83.028" xmlns="http://www.w3.org/2000/svg">
  <defs>
    <linearGradient x1="0%" y1="0%" x2="0%" y2="100%" id="a">
      <stop stop-color="#F9F7F7" offset="0%"/>
      <stop stop-color="#F1F1F1" offset="100%"/>
    </linearGradient>
  </defs>
  <path d="M21.7 143.2c2.9.6 19.8-9 19.8-17.9s-12.6-22-15.6-63.6S23 6.6 23 6.6 22 0 18.5 0s-7.6 21-7.6 21-5 21.9-4.9 56.2-1.2 32-2.4 34.6S0 120 0 123.6c0 7.8 7 16.5 21.7 19.6" 
    fill="url(#a)" transform="translate(.289 .288)scale(.57566)"/>
  <path d="M12.78 82.723c1.67.345 11.399-5.181 11.399-10.305s-7.254-12.664-8.98-36.612-1.67-31.719-1.67-31.719S12.953.288 10.94.288 6.564 12.377 6.564 12.377 3.685 24.984 3.743 44.729 3.053 63.15 2.36 64.647.29 69.367.29 71.44c0 4.49 4.03 9.498 12.492 11.283z" 
    stroke="#9f9f9f" stroke-linejoin="round" stroke-width=".576" fill="none"/>
  <path d="M3.513 58.142c3.741-1.324 7.195-2.303 11.11-1.324 1.439.345 3.569.575 4.72 1.612" 
    stroke="#9f9f9f" stroke-linejoin="round" stroke-width=".576" fill="none"/>
</svg>