<svg xml:space="preserve" width="35.463" height="71.439" xmlns="http://www.w3.org/2000/svg">
  <defs>
    <linearGradient x1="0%" y1="0%" x2="0%" y2="100%" id="a">
      <stop stop-color="#F7F7F7" offset="0%"/>
      <stop stop-color="#EBEAEA" offset="100%"/>
    </linearGradient>
    <linearGradient x1="0%" y1="0%" x2="0%" y2="100%" id="b">
      <stop stop-color="#F9F7F7" offset="0%"/>
      <stop stop-color="#F1F1F1" offset="100%"/>
    </linearGradient>
  </defs>
  <path d="M19.9 15.5S20 0 28.6 0C37.2.1 37 5.9 37 5.9l5.4 51.7-20.5 1.8z" 
    fill="url(#a)" transform="translate(.288 .288)scale(.57566)"/>
  <path d="M11.743 9.21S11.801.289 16.752.289c4.95.058 4.835 3.397 4.835 3.397l3.109 29.761-11.801 1.036-1.152-25.271" 
    stroke="#9f9f9f" stroke-linejoin="round" stroke-width=".576" fill="none"/>
  <path d="M26.6 117s-3 4.8-11 4.8S0 111.4 0 102.1s5.8-17.7 5.8-39.2S4.8 6.5 12 6s8.6 13.9 8.6 13.9c.8 1.2 1.4 17 2.4 21.1s4 15.4 7.1 14.4 5.5-15.8 5.8-20.8-1.1-27.1.9-28.2 3.8.1 6.8 2.6c3.1 2.5 8.4 15.2 10.3 23.1s1.9 35.1 3.6 47.8 3.2 22.1 3.1 27-9.8 16.2-14.9 16.2-19.2-6.6-19.2-6.6v-11.4V117" 
    fill="url(#b)" transform="translate(.288 .288)scale(.57566)"/>
  <path d="M15.6 67.64s-1.727 2.763-6.332 2.763-8.98-5.986-8.98-11.34 3.339-10.19 3.339-22.566S3.05 4.03 7.196 3.742s4.95 8.002 4.95 8.002c.46.69.806 9.786 1.382 12.146s2.303 8.865 4.087 8.29 3.166-9.096 3.339-11.974-.633-15.6.518-16.234 2.188.058 3.915 1.497c1.784 1.44 4.835 8.75 5.929 13.298s1.094 20.205 2.072 27.516 1.842 12.722 1.785 15.543-5.642 9.326-8.578 9.326-11.052-3.8-11.052-3.8V60.79v6.85" 
    stroke="#9f9f9f" stroke-linejoin="round" stroke-width=".576" fill="none"/>
  <path d="M2.82 46.571c2.36-.633 4.606-1.439 7.024-1.842a127 127 0 0 1 8.001-.979c2.821-.23 5.93-.633 8.75-.287 1.555.172 3.051.863 4.606 1.266.806.173 1.381.69 2.13.864" 
    stroke="#9f9f9f" stroke-linejoin="round" stroke-width=".576" fill="none"/>
</svg>