<svg xml:space="preserve" width="29.589" height="64.164" xmlns="http://www.w3.org/2000/svg">
  <defs>
    <linearGradient x1="0%" y1="0%" x2="0%" y2="100%" id="a">
      <stop stop-color="#F7F7F7" offset="0%"/>
      <stop stop-color="#EBEAEA" offset="100%"/>
    </linearGradient>
    <linearGradient x1="0%" y1="0%" x2="0%" y2="100%" id="b">
      <stop stop-color="#F9F7F7" offset="0%"/>
      <stop stop-color="#F1F1F1" offset="100%"/>
    </linearGradient>
  </defs>
  <path d="M11.9 6.47s-1-4.5 1.4-6 6.1.6 9.8 6.2l7.6 18.7v28.7l-9.5-1.1-3.8-7.2-1.5-25.6z" 
    fill="url(#a)" transform="translate(.288 .284)scale(.57566)"/>
  <path d="M7.138 4.008s-.575-2.59.806-3.454 3.512.346 5.642 3.57l4.375 10.764V31.41l-5.47-.633-2.187-4.145-.863-14.737z" 
    stroke="#9f9f9f" stroke-linejoin="round" stroke-width=".576" fill="none"/>
  <path d="M5.9 73.67c-.2 1.5-3.5 8.3-3.7 10.2-.2 1.8-2.2 7.7-2.2 11.3 0 3.7 7.2 13.2 12.5 13.5s9.3-3.5 9.3-3.5v-.7l-.1-7.1.1 7.1s10.1 6 12 6c1.8 0 16.5-9.3 16.6-15.3v-5.1l-6.6-18-.5-3.6s-.2-25-1.6-31.8-8.6-26.8-12-28.6-4.9-1.9-5.8-1.2c0 0-2.4.6.6 9.4l2.2 9.8s1.1 23.6-2.5 23.5-3.3-26.6-4.7-31.6-2.1-11.7-6.1-11.5-4.1 11.6-4.2 22.4-3.1 43.3-3.3 44.8" 
    fill="url(#b)" transform="translate(.288 .284)scale(.57566)"/>
  <path d="M3.684 42.693c-.115.863-2.014 4.778-2.13 5.871C1.44 49.601.288 52.997.288 55.07c0 2.13 4.145 7.6 7.196 7.772s5.353-2.015 5.353-2.015v-.403l-.057-4.087.057 4.087s5.814 3.454 6.908 3.454c1.036 0 9.499-5.354 9.556-8.808v-2.935l-3.8-10.362-.287-2.073s-.115-14.391-.921-18.306-4.95-15.427-6.908-16.464-2.82-1.093-3.339-.69c0 0-1.381.345.346 5.41l1.266 5.642s.633 13.586-1.44 13.528-1.899-15.312-2.705-18.19-1.209-6.736-3.511-6.62-2.36 6.677-2.418 12.894-1.785 24.926-1.9 25.79z" 
    stroke="#9f9f9f" stroke-linejoin="round" stroke-width=".576" fill="none"/>
  <path d="M3.742 42.175c2.303-.058.46-1.785 8.405-1.958 1.669-.057 3.28.403 4.95.46 1.44.058 2.878.174 4.318.289 1.324.115 2.648-.173 3.972.172 0 .116.057.058.057.116" 
    stroke="#9f9f9f" stroke-linejoin="round" stroke-width=".576" fill="none"/>
</svg>