<svg xml:space="preserve" width="30.59" height="75.833" xmlns="http://www.w3.org/2000/svg" version="1.1" xmlns:xlink="http://www.w3.org/1999/xlink" transform="matrix(-1,0,0,1,0,0)">
  <defs>
    <linearGradient x1="0%" y1="0%" x2="0%" y2="100%" id="a">
      <stop stop-color="#F9F7F7" offset="0%"></stop>
      <stop stop-color="#F1F1F1" offset="100%"></stop>
    </linearGradient>
  </defs>
  <path d="M28.923 130.537c5.6.3 22.8 1.2 23.2-6.4s-7.5-33.9-7.9-44.9.2-33.8-2.5-44.8-11-30.5-11-30.5-2.5-4.8-6.2-3.8c-3.8 1-3.4 18.8-3.9 35.2s-7.9 11.6-8.2 44.1c-2 5.9-12.5 19.6-12.4 34.1 0 .1-1.9 18.6 28.9 17" fill="url(#a)" transform="translate(.289 .287)scale(.57566)"></path>
  <path d="M16.939 75.432c3.224.173 13.125.69 13.355-3.684S25.977 52.233 25.746 45.9s.116-19.458-1.439-25.79-6.332-17.558-6.332-17.558-1.44-2.763-3.57-2.187c-2.187.576-1.956 10.822-2.244 20.263s-4.548 6.678-4.72 25.387C6.288 49.412.244 57.299.301 65.646c0 .057-1.094 10.707 16.637 9.786z" stroke="#9f9f9f" stroke-linejoin="round" stroke-width=".576" fill="none"></path>
  <path d="M7.037 46.822c1.152-.403 2.246-.979 3.34-1.44 1.899-.748 3.971-.978 5.986-.863 1.497.058 2.936.403 4.433.748 1.094.23 2.36.346 3.339.806.575.23 1.036.691 1.554 1.094" stroke="#9f9f9f" stroke-linejoin="round" stroke-width=".576" fill="none"></path>
</svg>