<svg xml:space="preserve" width="21.426" height="71.982" xmlns="http://www.w3.org/2000/svg" version="1.1" xmlns:xlink="http://www.w3.org/1999/xlink">
  <defs>
    <linearGradient x1="0%" y1="0%" x2="0%" y2="100%" id="a">
      <stop stop-color="#F9F7F7" offset="0%"></stop>
      <stop stop-color="#F1F1F1" offset="100%"></stop>
    </linearGradient>
  </defs>
  <path d="M25.01 124.06c9.6-.9 10.9-4 11.2-6s-4.8-48.4-4.6-63.4-3-38.4-3.1-38.9-4.9-19.5-12.6-15.1c-3.5 3 2.6 4.6.9 18s-5.9 19.8-6.5 33.8-3.6 34.7-7 43.9-3.5 8.5-3.2 11.1-1.7 13.3 24.9 16.6" fill="url(#a)" transform="translate(.285 .278)scale(.57566)"></path>
  <path d="M14.682 71.694c5.526-.518 6.275-2.302 6.447-3.454s-2.763-27.862-2.648-36.497S16.754 9.638 16.697 9.35 13.877-1.875 9.444.658c-2.015 1.727 1.496 2.648.518 10.362S6.565 22.418 6.22 30.477 4.148 50.452 2.19 55.749.175 60.642.348 62.139s-.978 7.656 14.334 9.555z" stroke="#9f9f9f" stroke-linejoin="round" stroke-width=".576" fill="none"></path>
  <path d="M4.608 46.538c1.612-.633 3.109-1.785 4.836-2.13 1.324-.23 2.82-.058 4.202-.058 1.957-.057 4.03.576 5.584 1.727" stroke="#9f9f9f" stroke-linejoin="round" stroke-width=".576" fill="none"></path>
</svg>