<svg xml:space="preserve" width="23.809" height="71.44" xmlns="http://www.w3.org/2000/svg" version="1.1" xmlns:xlink="http://www.w3.org/1999/xlink" transform="matrix(-1,0,0,1,0,0)">
  <defs>
    <linearGradient x1="0%" y1="0%" x2="0%" y2="100%" id="a">
      <stop stop-color="#F9F7F7" offset="0%"></stop>
      <stop stop-color="#F1F1F1" offset="100%"></stop>
    </linearGradient>
  </defs>
  <path d="M21.453 123.102s-17.4-2.5-19.1-7-3.2-14-1.8-18.8 6.9-17 7.1-18.1 7.4-43.9 7.1-58.2-.8-20.9 1.8-21 5.8 3.4 6.8 9.6 11.6 72.9 12.1 74.1 5 11.1 4.9 18.5-11.3 20.8-18.9 20.9" fill="url(#a)" transform="translate(.291 .288)scale(.57566)"></path>
  <path d="M12.64 71.153s-10.016-1.44-10.994-4.03S-.197 59.064.609 56.301s3.972-9.786 4.088-10.42 4.26-25.271 4.087-33.503S8.324.347 9.82.289s3.339 1.957 3.914 5.526 6.678 41.966 6.966 42.657 2.878 6.39 2.82 10.65-6.504 11.973-10.88 12.03z" stroke="#9f9f9f" stroke-linejoin="round" stroke-width=".576" fill="none"></path>
  <path d="M4.754 46.284c1.67-.633 3.166-1.554 4.893-1.9a22.8 22.8 0 0 1 4.836-.345c1.324.058 2.533.691 3.8 1.094.632.173 1.323.345 1.899.748" stroke="#9f9f9f" stroke-linejoin="round" stroke-width=".576" fill="none"></path>
</svg>