<svg xml:space="preserve" width="32.064" height="65.377" xmlns="http://www.w3.org/2000/svg" version="1.1" xmlns:xlink="http://www.w3.org/1999/xlink" transform="matrix(-1,0,0,1,0,0)">
  <defs>
    <linearGradient x1="0%" y1="0%" x2="0%" y2="100%" id="a">
      <stop stop-color="#F7F7F7" offset="0%"></stop>
      <stop stop-color="#EBEAEA" offset="100%"></stop>
    </linearGradient>
    <linearGradient x1="0%" y1="0%" x2="0%" y2="100%" id="b">
      <stop stop-color="#F9F7F7" offset="0%"></stop>
      <stop stop-color="#F1F1F1" offset="100%"></stop>
    </linearGradient>
  </defs>
  <path d="M16.4 4.672s-.7-4.2 2.3-4.6c3.4-.4 4.3.8 7.4 5l7.8 22v25l-4.2 3-7-1.1-6.3-20.2.2-28.4" fill="url(#a)" transform="translate(.288 .286)scale(.57566)"></path>
  <path d="M9.729 2.975S9.326.558 11.053.327c1.957-.23 2.475.46 4.26 2.879l4.49 12.664v14.392l-2.418 1.727-4.03-.634L9.73 19.727l.115-16.349z" stroke="#9f9f9f" stroke-linejoin="round" stroke-width=".576" fill="none"></path>
  <path d="M6.4 74.372c-.8 1.3-3.8 8.6-4 10.5s-2.4 8-2.4 11.8 7.8 13.7 13.6 14 10.1-3.6 10.1-3.6v-.7l-.1-7.4.1 7.4s11 6.3 13 6.2c2 0 17.9-9.7 18-15.9v-5.2l-7.2-18.6-.6-3.8s-.2-25.9-1.7-32.9-8.4-25.4-11.7-28.4c-3-2.8-6.6-3.2-7.6-2.6 0 0-3.3.9 0 10l2.6 9.8s1.8 26.6-2.2 26.5c-4.4-.2-3.3-26.6-4.8-31.8s-2.8-15-7.1-14.8c-4.3.3-4.5 12.1-4.6 23.2 0 11 0 40.9-3.4 46.3" fill="url(#b)" transform="translate(.288 .286)scale(.57566)"></path>
  <path d="M3.972 43.099c-.46.748-2.187 4.95-2.302 6.044S.288 53.748.288 55.936s4.49 7.887 7.829 8.06 5.814-2.073 5.814-2.073v-.403l-.057-4.26.057 4.26s6.332 3.627 7.484 3.569c1.151 0 10.304-5.584 10.362-9.153v-2.993l-4.145-10.708-.346-2.187s-.115-14.91-.978-18.94-4.836-14.62-6.735-16.348c-1.727-1.612-3.8-1.842-4.375-1.497 0 0-1.9.518 0 5.757l1.496 5.641s1.036 15.313-1.266 15.255c-2.533-.115-1.9-15.312-2.763-18.306s-1.612-8.635-4.088-8.52c-2.475.173-2.59 6.966-2.648 13.356 0 6.332 0 23.544-1.957 26.653z" stroke="#9f9f9f" stroke-linejoin="round" stroke-width=".576" fill="none"></path>
  <path d="M4.548 41.544c3.626-.633 6.965-.633 8.807-.518 1.785.116 3.397-.115 5.181-.057 1.555.057 2.994-.115 4.606 0 1.151.057 2.36 0 4.432.46 0 .115.058.115.115.115" stroke="#9f9f9f" stroke-linejoin="round" stroke-width=".576" fill="none"></path>
</svg>